<?xml version="1.0" encoding="UTF-8"?>
<svg id="Capa_2" data-name="Capa 2" xmlns="http://www.w3.org/2000/svg" viewBox="0 0 610.43 514.38">
  <defs>
    <style>
      .cls-1 {
        font-family: Didot, Didot;
        font-size: 98px;
      }

      .cls-1, .cls-2 {
        fill: #46b7de;
      }
    </style>
  </defs>
  <g id="Capa_1-2" data-name="Capa 1">
    <text class="cls-1" transform="translate(0 356.13)"><tspan x="0" y="0">Dominguez </tspan><tspan x="0" y="117.6" xml:space="preserve">    &amp; Prados</tspan></text>
    <path class="cls-2" d="m172.03,208.57c-3.45-8.85-8.3-17.03-12.64-25.46-9.36-18.17-15.81-37.35-20.71-57.15-1.46-5.88-1.18-10.98,1.22-16.5,2.27-5.21,3.74-10.77,3.34-16.67-.52-7.6-4.38-12.8-10.9-14.07-1.41-.28-3.91-.22-3.96,1.22-.26,7.33-1.95-1.72-1.32-2.97,2.26-4.5,2.98-4.94,7.9-4.35,1.15.14,2.34.14,3.44.47,1.4.43,1.78.06,1.79-1.35.04-5.36.25-10.72.23-16.08-.01-3.76.48-7.32,2.45-10.63.95-1.6,1.64-3.39,2.28-5.15,2.49-6.91,2.99-13.84-.16-20.71-1.51-3.29-3.78-5.82-7.37-6.9-2.55-.77-3.69-.12-4.06,2.52-1.19,8.46-3.97,16.43-7.4,24.19-1.63,3.68-2.7,7.45-3.04,11.47-.31,3.69-1.2,7.27-2.7,10.69-1.95,4.44-3.86,8.89-5.79,13.33-.99,2.29-1.6,4.67-1.37,7.18.29,3.1.55,6.21,1.07,9.27,2.98,17.28,3.92,34.5-.56,51.71-1.07,4.12-1.05,8.34.62,12.38,1.75,4.22,3.82,8.28,6.55,11.97,8.15,11.01,15.6,22.46,22.22,34.47,6.54,11.86,10.65,24.22,9.57,37.94-.45,5.7-.87,11.41-1.54,17.09-1,8.41-2.2,16.79-3.36,25.18-.19,1.4-.1,2.14,1.65,2.13,7.97-.07,15.94-.05,23.91.01,1.28,0,1.57-.45,1.6-1.63.24-9.63.54-19.26.84-29.54,0-7.69-.03-16.03,0-24.36.03-6.83-1.33-13.4-3.79-19.71Z"/>
    <path class="cls-2" d="m417.71,95.09c-2.15-2.06-4.23-4.25-5.57-6.91-4.3-8.51-9.11-16.87-8.51-26.96.13-2.12-.78-2.8-2.94-2.78-1.18.01-2.31.27-3.36.77-5.85,2.72-9.02,7.37-9.37,13.77-.52,9.24,2.91,17.48,7.11,25.38,1.28,2.4,1.8,4.6,1.41,7.19-.85,5.58-1.79,11.15-2.4,16.76-2.1,19.46-7.29,38.02-15.81,55.66-3.4,7.04-7.21,13.86-10.82,20.79-5.1,9.78-8.42,19.91-7.7,31.19.43,6.78.08,13.62.08,20.43.2,0,.39,0,.59,0,0,10.36.03,20.72-.03,31.08,0,1.59.46,2.17,2.07,2.17,7.24,0,14.49.06,21.73.15,1.25.02,1.72-.5,1.62-1.68-.05-.65-.05-1.31-.14-1.95-1.33-9.68-2.84-19.34-3.94-29.04-.9-7.92-1.42-15.92.02-23.83,2.1-11.5,7.44-21.7,13.26-31.66,4.68-8.01,10.22-15.46,15.32-23.19,5.35-8.13,9.8-16.63,9.81-26.7,0-13.77-.1-27.53,1.22-41.26.36-3.72-.95-6.81-3.63-9.37Z"/>
    <path class="cls-2" d="m362.14,34.74c-3.56-3.37-7.77-4.97-12.79-4.96-10.09.02-20.09,1.3-30.13,1.97-5.13.34-10.15,1.54-14.73,4.14-3.78,2.14-7.67,4.07-11.66,5.78-3.92,1.67-7.87,3.3-11.75,5.07-2.74,1.24-3.2,2.49-2.37,5.41.28.99.74,1.88,1.3,2.73,3.22,4.9,8.04,5.64,13.24,4.79,6.88-1.12,13.54-3.2,19.71-6.44,3.81-2,7.62-2.3,11.75-1.79,8.21,1,16.46,1.29,24.71.35,1.38-.16,1.93.4,2.51,1.45,5.97,10.77,14.62,19.34,23.26,28.64.19-.9.3-1.23.32-1.57.54-8.48,3.87-15.81,9.34-22.2.86-1.01.28-1.32-.28-1.87-7.47-7.17-14.92-14.38-22.43-21.5Z"/>
    <path class="cls-2" d="m148.68,79.75c.92.46,1.43,1.77,2.08,2.73,1.25,1.86,2.45,3.75,3.68,5.63.53.81.91,1.32,1.51-.07,3.95-9.15,9.01-17.66,15.45-25.27,3.52-4.17,6.21-8.65,7.47-14.01.79-3.38,2.48-6.36,5.2-8.58,1.84-1.51,3.84-2.84,5.8-4.2,7.44-5.16,11.52-12.6,14.31-20.94.33-.98.34-1.99.36-3,.15-2.31-.5-4.45-1.54-6.47-1.99-3.86-4.2-4.36-7.28-1.39-7.94,7.62-16.07,15.07-23.01,23.65-6.88,8.5-13.6,17.13-21.3,24.92-1.59,1.61-2.51,3.64-2.53,5.85-.06,5.67-.73,11.26-1.79,16.81-.34,1.77-.47,3.32,1.61,4.36Z"/>
    <path class="cls-2" d="m297.71,17.72c6.01,2.09,12.24,2.89,18.6,2.58,1.88-.09,3.4.24,4.51,1.9.72,1.07,1.86,1.52,3.16,1.67,1.67.19,3.32.17,4.99.09,7.67-.38,15.33-.78,23.01-.95,6.63-.15,11.94,1.87,16.55,6.87,6.82,7.4,14.15,14.32,21.89,20.78.88.74,1.73,1.53,2.83,1.98.53.21.99.26,1.37-.2.36-.43,0-.82-.19-1.18-.2-.39-.43-.76-.69-1.11-6.98-9.44-13.3-19.29-18.93-29.6-2.2-4.03-5.69-6.66-10.31-7.67-4.31-.94-8.58-2.03-12.88-3.03-8.72-2.03-17.6-3.43-26.08-6.48-1.96-.71-4.11-.91-6.21-.86-10.09.23-20.13-.34-30.02-2.39-3.11-.65-3.93,1.12-4.08,3.47.06.94.16,1.86.47,2.77,2,5.91,6.35,9.38,12.01,11.35Z"/>
    <path class="cls-2" d="m266.89,50.19c1.5.39,2.63-.02,3.57-1.31,4.33-5.91,9.94-10.32,16.49-13.47,5.85-2.81,11.7-5.66,18.1-7.45-3.55-1.15-7.16-2.14-10.63-3.51-3.03-1.19-5.73-.95-8.49.64-4.65,2.69-9.65,4.6-14.75,6.27-3.5,1.15-7.06,2.12-10.56,3.27-2.93.97-4.49,3.15-3.81,5.48,1.49,5.17,4.75,8.67,10.08,10.07Z"/>
    <path class="cls-2" d="m185.13,52.13c-.24.35-.69.68-.41,1.13.31.5.77.16,1.15,0,8.73-3.39,17.77-5.46,27.08-6.46,1.63-.17,3.36-.39,4.38-1.99,2.1-3.28,3.45-6.82,3.65-10.97-.06-.5-.13-1.22-.25-1.93-.57-3.18-1.94-4.2-5.12-3.74-1.94.28-3.83.88-5.52,1.86-9.79,5.69-18.44,12.69-24.96,22.09Z"/>
    <path class="cls-2" d="m365.51,87.34c-5.99-15.54-20.19-25.44-36.83-25.75-8.83-.16-17.19,1.82-25.51,4.49-7.16,2.29-14.4,4.51-21.94,5.07-11.59.86-22.51-2.03-33.15-6.43-7.68-3.17-15.26-6.63-23.39-8.58-7.78-1.87-15.68-2.49-23.47-.75-16.56,3.71-27.31,14.37-33.26,29.84-3.89,10.12-5.93,20.73-5.5,31.16-.54,12.76,2.85,24.11,7.97,35.06,3.26,6.96,7.32,13.48,10.86,20.28,3.51,6.76,6.48,13.74,7.68,21.34,1.39,8.81,1.37,17.76,2.47,26.6,1.41,11.35,2.91,22.66,7.38,33.36,5.46,13.08,12.32,25.22,22.51,35.26,2.6,2.56,5.5,4.7,8.97,5.98,4.12,1.52,7.28-.12,8.15-4.38.67-3.27.91-6.6.85-9.94-.19-10.53.82-20.96,2.57-31.34,1.58-9.35,3.12-18.68,7.02-27.45,2.38-5.35,5.19-10.37,9.53-14.37,5.62-5.18,13.29-5.01,18.77.28,2.69,2.6,4.63,5.71,6.4,8.98,4.52,8.37,6.24,17.56,7.83,26.75,2,11.58,2.81,23.28,2.46,35.05-.11,3.83-.23,7.7.84,11.44,1.47,5.15,5.28,6.83,10.03,4.58,2.65-1.25,5-2.92,7.09-4.96,14.6-14.2,23.61-31.45,27.95-51.26,2.04-9.32,2.51-18.78,2.99-28.26.43-8.47,1.36-16.85,3.95-25.02,2.34-7.39,5.97-14.11,9.84-20.73,5.31-9.09,10.44-18.36,12.61-28.7,3.39-16.12,2.34-32.08-3.64-47.6Zm-179.33,66.09v1.69s-12.91-22.03-11.2-41.88,6.69-32.51,11.2-36.18l4.51-3.67.48-.43s5.52-8.57,33.52-2.57c0,0-50,5-38.51,83.05Z"/>
  </g>
</svg>