<?xml version="1.0" encoding="UTF-8"?>
<svg id="Capa_2" data-name="Capa 2" xmlns="http://www.w3.org/2000/svg" viewBox="0 0 610.43 514.38">
  <defs>
    <style>
      .cls-1 {
        fill: #fff;
      }

      .cls-2 {
        font-family: Didot, Didot;
        font-size: 98px;
      }
    </style>
  </defs>
  <g id="Capa_1-2" data-name="Capa 1">
    <text class="cls-2" transform="translate(0 356.13)"><tspan x="0" y="0">Dominguez </tspan><tspan x="0" y="117.6" xml:space="preserve">    &amp; Prados</tspan></text>
    <path d="m365.51,87.34c-5.99-15.54-20.19-25.44-36.83-25.75-8.83-.16-17.19,1.82-25.51,4.49-7.16,2.29-14.4,4.51-21.94,5.07-11.59.86-22.51-2.03-33.15-6.43-7.68-3.17-15.26-6.63-23.39-8.58-7.78-1.87-15.68-2.49-23.47-.75-16.56,3.71-27.31,14.37-33.26,29.84-3.89,10.12-5.93,20.73-5.5,31.16-.54,12.76,2.85,24.11,7.97,35.06,3.26,6.96,7.32,13.48,10.86,20.28,3.51,6.76,6.48,13.74,7.68,21.34,1.39,8.81,1.37,17.76,2.47,26.6,1.41,11.35,2.91,22.66,7.38,33.36,5.46,13.08,12.32,25.22,22.51,35.26,2.6,2.56,5.5,4.7,8.97,5.98,4.12,1.52,7.28-.12,8.15-4.38.67-3.27.91-6.6.85-9.94-.19-10.53.82-20.96,2.57-31.34,1.58-9.35,3.12-18.68,7.02-27.45,2.38-5.35,5.19-10.37,9.53-14.37,5.62-5.18,13.29-5.01,18.77.28,2.69,2.6,4.63,5.71,6.4,8.98,4.52,8.37,6.24,17.56,7.83,26.75,2,11.58,2.81,23.28,2.46,35.05-.11,3.83-.23,7.7.84,11.44,1.47,5.15,5.28,6.83,10.03,4.58,2.65-1.25,5-2.92,7.09-4.96,14.6-14.2,23.61-31.45,27.95-51.26,2.04-9.32,2.51-18.78,2.99-28.26.43-8.47,1.36-16.85,3.95-25.02,2.34-7.39,5.97-14.11,9.84-20.73,5.31-9.09,10.44-18.36,12.61-28.7,3.39-16.12,2.34-32.08-3.64-47.6Z"/>
    <path d="m175.81,252.64c-.3,10.27-.6,19.9-.84,29.54-.03,1.18-.32,1.64-1.6,1.63-7.97-.06-15.94-.08-23.91-.01-1.75.02-1.85-.73-1.65-2.13,1.16-8.39,2.36-16.77,3.36-25.18.68-5.68,1.09-11.39,1.54-17.09,1.09-13.72-3.03-26.08-9.57-37.94-6.62-12.01-14.07-23.46-22.22-34.47-2.73-3.69-4.8-7.75-6.55-11.97-1.67-4.04-1.69-8.25-.62-12.38,4.48-17.21,3.54-34.43.56-51.71-.53-3.06-.79-6.17-1.07-9.27-.23-2.5.38-4.89,1.37-7.18,1.93-4.45,3.84-8.9,5.79-13.33,1.5-3.41,2.39-7,2.7-10.69.34-4.02,1.41-7.8,3.04-11.47,3.43-7.76,6.22-15.73,7.4-24.19.37-2.64,1.52-3.28,4.06-2.52,3.59,1.08,5.86,3.61,7.37,6.9,3.15,6.87,2.65,13.8.16,20.71-.64,1.76-1.32,3.55-2.28,5.15-1.97,3.31-2.46,6.87-2.45,10.63.02,5.36-.19,10.72-.23,16.08,0,1.41-.39,1.78-1.79,1.35-1.09-.33-2.29-.33-3.44-.47-4.92-.59-5.64-.16-7.9,4.35-.63,1.25,1.05,10.3,1.32,2.97.05-1.44,2.55-1.5,3.96-1.22,6.52,1.28,10.38,6.47,10.9,14.07.4,5.9-1.07,11.46-3.34,16.67-2.41,5.52-2.68,10.62-1.22,16.5,4.91,19.8,11.36,38.98,20.71,57.15,4.34,8.42,9.18,16.6,12.64,25.46,2.46,6.31,3.82,12.88,3.79,19.71-.04,8.33,0,16.67,0,24.36Z"/>
    <path d="m359.83,250.38c0-6.81.35-13.64-.08-20.43-.72-11.28,2.6-21.41,7.7-31.19,3.61-6.93,7.42-13.75,10.82-20.79,8.52-17.64,13.7-36.2,15.81-55.66.61-5.61,1.55-11.18,2.4-16.76.4-2.6-.13-4.79-1.41-7.19-4.2-7.9-7.63-16.14-7.12-25.38.36-6.4,3.52-11.05,9.37-13.77,1.06-.49,2.18-.76,3.36-.77,2.16-.02,3.07.66,2.94,2.78-.6,10.09,4.2,18.45,8.51,26.96,1.35,2.66,3.42,4.85,5.57,6.91,2.68,2.56,3.99,5.65,3.63,9.37-1.32,13.73-1.21,27.5-1.22,41.26,0,10.07-4.45,18.57-9.81,26.7-5.1,7.74-10.64,15.19-15.32,23.19-5.82,9.96-11.16,20.16-13.26,31.66-1.44,7.91-.92,15.91-.02,23.83,1.1,9.7,2.62,19.36,3.94,29.04.09.64.09,1.3.14,1.95.1,1.18-.37,1.7-1.62,1.68-7.24-.09-14.49-.15-21.73-.15-1.61,0-2.08-.58-2.07-2.17.06-10.36.03-20.72.03-31.08-.2,0-.39,0-.59,0Z"/>
    <path d="m375.2,81.87c-8.64-9.3-17.28-17.88-23.26-28.64-.58-1.05-1.13-1.61-2.51-1.45-8.24.94-16.49.65-24.71-.35-4.13-.51-7.94-.21-11.75,1.79-6.18,3.24-12.83,5.32-19.71,6.44-5.19.85-10.02.11-13.24-4.79-.56-.85-1.02-1.74-1.3-2.73-.83-2.91-.38-4.16,2.37-5.41,3.88-1.76,7.83-3.39,11.75-5.07,4-1.71,7.89-3.63,11.66-5.78,4.57-2.6,9.59-3.79,14.73-4.14,10.04-.67,20.03-1.96,30.13-1.97,5.02,0,9.24,1.59,12.79,4.96,7.52,7.12,14.96,14.33,22.43,21.5.57.54,1.14.86.28,1.87-5.46,6.39-8.8,13.72-9.34,22.2-.02.34-.13.67-.32,1.57Z"/>
    <path d="m204.54,12.03c-.01,1.01-.03,2.02-.36,3-2.79,8.34-6.87,15.78-14.31,20.94-1.96,1.36-3.96,2.69-5.8,4.2-2.72,2.23-4.41,5.21-5.2,8.58-1.25,5.36-3.95,9.84-7.47,14.01-6.43,7.62-11.5,16.12-15.45,25.27-.6,1.39-.98.88-1.51.07-1.23-1.87-2.44-3.77-3.68-5.63-.64-.96-1.16-2.26-2.08-2.73-2.07-1.04-1.94-2.6-1.61-4.36,1.06-5.55,1.74-11.14,1.79-16.81.02-2.21.94-4.24,2.53-5.85,7.71-7.79,14.42-16.42,21.3-24.92,6.94-8.58,15.07-16.03,23.01-23.65,3.09-2.96,5.29-2.46,7.28,1.39,1.04,2.02,1.68,4.15,1.54,6.47Z"/>
    <path d="m285.23,3.6c.15-2.35.97-4.11,4.08-3.47,9.89,2.06,19.93,2.62,30.02,2.39,2.1-.05,4.25.15,6.21.86,8.48,3.05,17.36,4.45,26.08,6.48,4.29,1,8.57,2.09,12.88,3.03,4.62,1.01,8.11,3.64,10.31,7.67,5.63,10.31,11.95,20.16,18.93,29.6.26.35.49.72.69,1.11.19.37.54.75.19,1.18-.38.46-.85.41-1.37.2-1.1-.45-1.95-1.24-2.83-1.98-7.74-6.46-15.07-13.38-21.89-20.78-4.61-5-9.92-7.02-16.55-6.87-7.68.17-15.34.57-23.01.95-1.67.08-3.32.1-4.99-.09-1.3-.15-2.44-.6-3.16-1.67-1.12-1.66-2.64-2-4.51-1.9-6.35.31-12.59-.48-18.6-2.58-5.65-1.97-10-5.44-12.01-11.35-.31-.91-.41-1.83-.47-2.77Z"/>
    <path d="m305.05,27.97c-6.4,1.79-12.26,4.64-18.1,7.45-6.55,3.15-12.16,7.56-16.49,13.47-.94,1.29-2.06,1.7-3.57,1.31-5.32-1.39-8.58-4.9-10.08-10.07-.67-2.33.89-4.51,3.81-5.48,3.5-1.16,7.06-2.13,10.56-3.27,5.09-1.66,10.09-3.58,14.75-6.27,2.76-1.6,5.46-1.84,8.49-.64,3.47,1.36,7.08,2.35,10.63,3.51Z"/>
    <path d="m220.99,33.85c-.21,4.15-1.55,7.69-3.65,10.97-1.02,1.59-2.75,1.81-4.38,1.99-9.31,1-18.35,3.07-27.08,6.46-.38.15-.84.49-1.15,0-.28-.45.17-.78.41-1.13,6.52-9.4,15.17-16.39,24.96-22.09,1.69-.98,3.57-1.58,5.52-1.86,3.18-.47,4.56.56,5.12,3.74.13.71.19,1.43.25,1.93Z"/>
    <path class="cls-1" d="m186.19,155.12s-12.91-22.03-11.2-41.88,7.19-31.96,11.2-36.18c3.49-3.67,4.49-4.67,4.49-4.67,0,0,6.02-8,34.02-2,0,0-50,5-38.51,83.05"/>
  </g>
</svg>