<?xml version="1.0" encoding="UTF-8"?>
<svg id="Capa_2" data-name="Capa 2" xmlns="http://www.w3.org/2000/svg" viewBox="0 0 1256.69 303.1">
  <defs>
    <style>
      .cls-1 {
        fill: #46b7de;
      }
    </style>
  </defs>
  <g id="Capa_1-2" data-name="Capa 1">
    <g>
      <path class="cls-1" d="m0,273.7h10.88v-67.03H0v-1.37h18.23c.91,0,1.83-.02,2.74-.05.91-.03,1.83-.08,2.74-.15.92,0,1.83-.01,2.74-.05.91-.03,1.83-.05,2.74-.05,1.96,0,3.71.03,5.24.1,1.53.07,2.97.18,4.31.34,1.34.16,2.61.39,3.82.69,1.21.29,2.5.67,3.87,1.13,3.98,1.31,7.43,3.05,10.34,5.24,2.91,2.19,5.29,4.72,7.15,7.59,1.86,2.88,3.23,6.01,4.12,9.41.88,3.4,1.32,6.96,1.32,10.68,0,4.31-.52,8.18-1.57,11.61-1.05,3.43-2.48,6.47-4.31,9.11-1.83,2.65-3.97,4.93-6.42,6.86-2.45,1.93-5.08,3.48-7.89,4.65-1.57.72-3.05,1.27-4.46,1.67-1.41.39-2.84.69-4.31.88-1.47.2-3.09.33-4.85.39-1.76.06-3.79.1-6.08.1-.98,0-2.03-.02-3.14-.05-1.11-.03-2.22-.08-3.33-.15-1.11-.07-2.21-.11-3.28-.15-1.08-.03-2.11-.05-3.09-.05H0v-1.37Zm20.68,0c1.11.13,2.4.23,3.87.29,1.47.07,3.09.1,4.85.1,2.22,0,4.42-.11,6.62-.34,2.19-.23,4.28-.72,6.27-1.47,1.99-.75,3.85-1.83,5.59-3.23,1.73-1.4,3.28-3.25,4.66-5.54,2.09-3.53,3.54-7.14,4.36-10.83.82-3.69,1.22-7.72,1.22-12.1,0-5.16-.49-9.85-1.47-14.06-.98-4.21-2.6-7.81-4.85-10.78-2.25-2.97-5.24-5.28-8.97-6.91-3.72-1.63-8.33-2.45-13.82-2.45-1.63,0-3.12.03-4.46.1-1.34.07-2.63.13-3.87.2v67.03Z"/>
      <path class="cls-1" d="m81.34,254.1c0-3.2.7-6.17,2.11-8.92,1.4-2.74,3.2-5.11,5.39-7.1,2.19-1.99,4.64-3.54,7.35-4.66,2.71-1.11,5.37-1.67,7.99-1.67s5.28.56,7.99,1.67c2.71,1.11,5.16,2.66,7.35,4.66,2.19,1.99,3.98,4.36,5.39,7.1,1.4,2.74,2.11,5.72,2.11,8.92s-.65,5.96-1.96,8.67c-1.31,2.71-3.02,5.08-5.14,7.1-2.12,2.03-4.56,3.63-7.3,4.8-2.74,1.18-5.55,1.76-8.43,1.76s-5.68-.59-8.43-1.76c-2.74-1.18-5.18-2.78-7.3-4.8-2.12-2.02-3.84-4.39-5.15-7.1-1.31-2.71-1.96-5.6-1.96-8.67Zm9.8,0c0,4.64.36,8.33,1.08,11.07.72,2.74,1.67,4.85,2.84,6.32,1.18,1.47,2.55,2.43,4.12,2.89,1.57.46,3.23.69,5,.69s3.43-.23,5-.69c1.57-.46,2.94-1.42,4.12-2.89s2.12-3.58,2.84-6.32c.72-2.74,1.08-6.43,1.08-11.07,0-3.92-.26-7.2-.78-9.85-.52-2.65-1.32-4.8-2.4-6.47-1.08-1.67-2.43-2.86-4.07-3.58-1.63-.72-3.56-1.08-5.78-1.08s-4.15.36-5.78,1.08c-1.63.72-2.99,1.91-4.07,3.58s-1.88,3.82-2.4,6.47c-.52,2.65-.78,5.93-.78,9.85Z"/>
      <path class="cls-1" d="m133.38,273.7h7.55v-39.3h-7.55v-1.37h15.78v10.29h.2c1.37-3.92,3.35-6.79,5.93-8.62,2.58-1.83,5.7-2.74,9.36-2.74,3.27,0,6.16.72,8.67,2.16,2.51,1.44,4.17,3.82,4.95,7.15h.2c.46-1.18,1.08-2.32,1.86-3.43.78-1.11,1.76-2.11,2.94-2.99s2.56-1.58,4.17-2.11c1.6-.52,3.41-.78,5.44-.78,9.54,0,14.31,4.87,14.31,14.6v27.15h7.55v1.37h-23.52v-1.37h7.55v-33.32c0-2.22-.61-3.95-1.81-5.19-1.21-1.24-2.86-1.86-4.95-1.86-1.63,0-3.27.31-4.9.93-1.63.62-3.1,1.55-4.41,2.79-1.31,1.24-2.37,2.84-3.19,4.8-.82,1.96-1.22,4.25-1.22,6.86v24.99h7.55v1.37h-23.52v-1.37h7.55v-31.95c0-2.87-.59-5-1.76-6.37-1.18-1.37-2.74-2.06-4.7-2.06-1.37,0-2.88.34-4.51,1.03-1.63.69-3.15,1.76-4.56,3.23-1.41,1.47-2.58,3.38-3.53,5.73-.95,2.35-1.42,5.23-1.42,8.62v21.76h7.55v1.37h-23.52v-1.37Z"/>
      <path class="cls-1" d="m219.42,273.7h7.55v-39.3h-7.55v-1.37h15.97v40.67h7.55v1.37h-23.52v-1.37Zm6.37-63.5c0-1.44.5-2.66,1.52-3.67s2.24-1.52,3.68-1.52,2.66.51,3.67,1.52c1.01,1.01,1.52,2.24,1.52,3.67s-.51,2.66-1.52,3.67c-1.01,1.01-2.24,1.52-3.67,1.52s-2.66-.5-3.68-1.52c-1.01-1.01-1.52-2.24-1.52-3.67Z"/>
      <path class="cls-1" d="m248.13,273.7h7.55v-39.3h-7.55v-1.37h15.78v10.49h.2c.39-.85.96-1.93,1.72-3.23.75-1.31,1.78-2.58,3.09-3.82,1.31-1.24,2.94-2.3,4.9-3.18,1.96-.88,4.34-1.32,7.15-1.32,4.31,0,7.82,1.05,10.54,3.14,2.71,2.09,4.07,5.42,4.07,10v28.62h7.55v1.37h-23.52v-1.37h7.55v-31.65c0-2.55-.6-4.64-1.81-6.27-1.21-1.63-3.09-2.45-5.64-2.45-2.09,0-4.08.46-5.98,1.37-1.9.92-3.56,2.19-5,3.82-1.44,1.63-2.56,3.56-3.38,5.78-.82,2.22-1.23,4.64-1.23,7.25v22.15h7.55v1.37h-23.52v-1.37Z"/>
      <path class="cls-1" d="m309.87,268.7c0-1.76.33-3.28.98-4.56.65-1.27,1.45-2.38,2.4-3.33s1.96-1.72,3.04-2.3,2.04-1.08,2.89-1.47c-3.79-2.61-5.68-6.14-5.68-10.58,0-2.29.55-4.34,1.67-6.17,1.11-1.83,2.51-3.38,4.21-4.66,1.7-1.27,3.58-2.24,5.64-2.89,2.06-.65,4.03-.98,5.93-.98,2.94,0,5.47.59,7.59,1.76,2.12,1.18,3.67,2.25,4.66,3.23.72-1.24,1.78-2.38,3.18-3.43,1.4-1.04,3.15-1.57,5.24-1.57,1.31,0,2.51.28,3.63.83,1.11.56,1.67,1.75,1.67,3.58,0,1.18-.38,2.06-1.13,2.65-.75.59-1.52.88-2.3.88-.92,0-1.57-.26-1.96-.78-.39-.52-.74-1.08-1.03-1.67s-.6-1.14-.93-1.67c-.33-.52-.82-.78-1.47-.78s-1.32.28-2.01.83c-.69.56-1.29,1.19-1.81,1.91.59.65,1.34,1.76,2.25,3.33.91,1.57,1.37,3.53,1.37,5.88,0,1.96-.49,3.76-1.47,5.39-.98,1.63-2.27,3.07-3.87,4.31-1.6,1.24-3.46,2.21-5.59,2.89-2.12.69-4.3,1.03-6.52,1.03s-4.28-.31-5.98-.93c-1.7-.62-3.01-1.16-3.92-1.62-.72.33-1.49.69-2.3,1.08-.82.39-1.57.88-2.25,1.47-.69.59-1.26,1.29-1.71,2.11-.46.82-.69,1.75-.69,2.79,0,.98.2,1.8.59,2.45.39.65.9,1.14,1.52,1.47.62.33,1.32.56,2.11.69.78.13,1.6.2,2.45.2h15.48c4.57,0,8.21,1.09,10.93,3.28,2.71,2.19,4.07,5.63,4.07,10.34,0,2.87-.62,5.49-1.86,7.84-1.24,2.35-2.89,4.39-4.95,6.12-2.06,1.73-4.43,3.07-7.11,4.02-2.68.95-5.42,1.42-8.23,1.42-2.55,0-4.88-.29-7.01-.88-2.12-.59-3.97-1.39-5.54-2.4-1.57-1.01-2.79-2.24-3.67-3.68-.88-1.44-1.32-3.04-1.32-4.8s.34-3.25,1.03-4.66c.69-1.41,1.57-2.65,2.65-3.72s2.3-2.01,3.67-2.79,2.74-1.44,4.12-1.96v-.2c-4.31,0-7.5-.7-9.56-2.11-2.06-1.4-3.09-3.81-3.09-7.2Zm14.7,9.31c-.85.52-1.71,1.06-2.6,1.62-.88.55-1.67,1.26-2.35,2.11-.69.85-1.24,1.84-1.67,2.99-.43,1.14-.64,2.56-.64,4.26,0,2.35.41,4.29,1.22,5.83.82,1.53,1.86,2.78,3.14,3.72,1.27.95,2.69,1.62,4.26,2.01,1.57.39,3.1.59,4.61.59,2.35,0,4.49-.36,6.42-1.08,1.93-.72,3.59-1.68,5-2.89,1.4-1.21,2.48-2.6,3.23-4.17.75-1.57,1.13-3.2,1.13-4.9,0-3.66-1-6.26-2.99-7.79-1.99-1.54-4.72-2.3-8.18-2.3h-10.58Zm15.88-31.85c0-1.5-.1-3.02-.29-4.56s-.6-2.94-1.22-4.21c-.62-1.27-1.57-2.3-2.84-3.09-1.27-.78-2.99-1.18-5.14-1.18-3.33,0-5.85,1.01-7.55,3.04-1.7,2.03-2.55,5.36-2.55,10,0,1.96.15,3.72.44,5.29s.83,2.92,1.62,4.07c.78,1.14,1.83,2.01,3.14,2.6,1.31.59,2.97.88,5,.88,3.4,0,5.81-1.06,7.25-3.18,1.44-2.12,2.16-5.34,2.16-9.65Z"/>
      <path class="cls-1" d="m412.18,275.07h-15.78v-9.9h-.2c-.59,1.31-1.29,2.63-2.11,3.97-.82,1.34-1.83,2.55-3.04,3.63-1.21,1.08-2.61,1.96-4.21,2.65-1.6.69-3.48,1.03-5.64,1.03-2.61,0-4.74-.29-6.37-.88-1.63-.59-2.91-1.21-3.82-1.86-.46-.33-.96-.74-1.52-1.23-.56-.49-1.06-1.16-1.52-2.01-.46-.85-.85-1.94-1.18-3.28-.33-1.34-.49-2.99-.49-4.95v-27.83h-7.55v-1.37h15.97v30.09c0,1.7.11,3.27.34,4.7.23,1.44.67,2.69,1.32,3.77.65,1.08,1.5,1.93,2.55,2.55,1.04.62,2.42.93,4.12.93,1.44,0,2.92-.42,4.46-1.27,1.53-.85,2.94-2.06,4.21-3.63,1.27-1.57,2.33-3.45,3.19-5.63.85-2.19,1.27-4.66,1.27-7.4v-22.74h-7.45v-1.37h15.88v40.67h7.55v1.37Z"/>
      <path class="cls-1" d="m428.84,250.77c0,.65-.02,1.32-.05,2.01-.03.69-.05,1.55-.05,2.6,0,2.16.13,4.41.39,6.76.26,2.35.83,4.48,1.71,6.37.88,1.9,2.19,3.46,3.92,4.7,1.73,1.24,4.03,1.86,6.91,1.86s5.24-.42,7.11-1.27c1.86-.85,3.33-1.88,4.41-3.09,1.08-1.21,1.88-2.43,2.4-3.67.52-1.24.91-2.25,1.18-3.04l1.47.29c-.2.72-.57,1.75-1.13,3.09-.56,1.34-1.44,2.68-2.65,4.02-1.21,1.34-2.84,2.52-4.9,3.53-2.06,1.01-4.72,1.52-7.99,1.52s-6.29-.52-9.07-1.57c-2.78-1.04-5.18-2.55-7.2-4.51-2.03-1.96-3.59-4.29-4.7-7.01-1.11-2.71-1.67-5.73-1.67-9.07,0-2.87.57-5.67,1.71-8.38,1.14-2.71,2.71-5.11,4.7-7.2,1.99-2.09,4.33-3.77,7.01-5.05,2.68-1.27,5.55-1.91,8.62-1.91,1.83,0,3.79.33,5.88.98,2.09.65,4.03,1.71,5.83,3.18,1.8,1.47,3.3,3.42,4.51,5.83,1.21,2.42,1.81,5.42,1.81,9.02h-30.18Zm20.19-1.37c.13-.92.2-1.76.2-2.55v-2.45c0-2.22-.21-4.05-.64-5.49-.43-1.44-1.01-2.58-1.76-3.43-.75-.85-1.67-1.45-2.74-1.81-1.08-.36-2.24-.54-3.48-.54-2.22,0-4.05.44-5.49,1.32-1.44.88-2.58,2.07-3.43,3.58-.85,1.5-1.49,3.23-1.91,5.19s-.7,4.02-.83,6.17h20.09Z"/>
      <path class="cls-1" d="m470.59,233.03h31.07l-24.4,40.67h13.82c1.89,0,3.45-.38,4.65-1.13,1.21-.75,2.19-1.7,2.94-2.84.75-1.14,1.34-2.37,1.77-3.68.42-1.31.83-2.55,1.22-3.72h.78l-1.27,12.74h-34.1l24.4-40.67h-8.43c-1.63,0-3.05.05-4.26.15-1.21.1-2.3.44-3.28,1.03-.98.59-1.9,1.54-2.74,2.84-.85,1.31-1.76,3.17-2.74,5.59h-.79l1.37-10.98Z"/>
    </g>
    <g>
      <path class="cls-1" d="m899.01,263.19c2.15-3.62,3.61-7.21,4.38-10.77.78-3.55,1.17-7.1,1.17-10.66s-.17-6.38-.5-8.49c-.33-2.11-.91-3.72-1.72-4.83-.82-1.11-1.91-1.83-3.27-2.17-1.37-.33-3.09-.5-5.16-.5v-1.55h21.09v1.55c-1.92,0-3.48.26-4.66.78-1.18.52-2.09,1.33-2.72,2.44-.63,1.11-1.04,2.54-1.22,4.27-.19,1.74-.28,3.83-.28,6.27,0,3.04-.15,5.74-.44,8.1-.3,2.37-.7,4.53-1.22,6.49-.52,1.96-1.18,3.81-2,5.55-.81,1.74-1.7,3.46-2.66,5.16,1.92,3.55,3.62,6.35,5.11,8.38,1.48,2.04,3.18,3.05,5.11,3.05,1.18,0,2.13-.33,2.83-1,.7-.67,1.24-1.52,1.61-2.55.37-1.04.63-2.17.78-3.39.15-1.22.22-2.42.22-3.61h1.55c0,3.11-.41,5.68-1.22,7.71-.82,2.04-1.83,3.68-3.05,4.94-1.22,1.26-2.61,2.15-4.16,2.66-1.55.52-3.04.78-4.44.78-1.55,0-2.89-.17-4-.5-1.11-.33-2.09-.85-2.94-1.55-.85-.7-1.65-1.57-2.39-2.61-.74-1.04-1.55-2.26-2.44-3.66-.89.89-2,1.81-3.33,2.78-1.33.96-2.83,1.85-4.5,2.66-1.67.82-3.5,1.5-5.5,2.05-2,.55-4.14.83-6.44.83-4.66,0-8.58-.91-11.77-2.72-3.18-1.81-5.75-4-7.71-6.55-1.96-2.55-3.35-5.25-4.16-8.1-.81-2.85-1.22-5.27-1.22-7.27,0-3.85.68-7.21,2.05-10.1,1.37-2.89,3.11-5.42,5.22-7.6,2.11-2.18,4.42-4.09,6.94-5.72,2.51-1.63,4.96-3.11,7.33-4.44-.82-1.63-1.63-3.53-2.44-5.72-.81-2.18-1.22-4.83-1.22-7.94,0-2.52.44-4.75,1.33-6.72.89-1.96,2.03-3.64,3.44-5.05,1.4-1.41,3.01-2.48,4.83-3.22,1.81-.74,3.64-1.11,5.49-1.11,2.81,0,5.2.89,7.16,2.66,1.96,1.78,2.94,4.55,2.94,8.33,0,2.22-.35,4.16-1.05,5.83-.7,1.67-1.59,3.13-2.66,4.38-1.07,1.26-2.28,2.33-3.61,3.22-1.33.89-2.59,1.67-3.77,2.33l19.31,36.85Zm-29.08-32.63c-3.85,2-6.92,4.31-9.21,6.94-2.29,2.63-3.44,6.09-3.44,10.38,0,3.33.59,6.83,1.78,10.49,1.18,3.66,2.74,7.01,4.66,10.05,1.92,3.04,4.09,5.53,6.49,7.49,2.4,1.96,4.83,2.94,7.27,2.94,2.66,0,5.16-.65,7.49-1.94,2.33-1.29,4.53-2.9,6.6-4.83l-21.64-41.51Zm4-20.42c0,1.93.54,4.22,1.61,6.88,1.07,2.66,2.28,5.33,3.61,7.99,1.26-.74,2.5-1.52,3.72-2.33,1.22-.81,2.29-1.78,3.22-2.89.92-1.11,1.68-2.4,2.28-3.88.59-1.48.89-3.22.89-5.22,0-2.52-.61-4.74-1.83-6.66-1.22-1.92-3.31-2.89-6.27-2.89-1.92,0-3.61.85-5.05,2.55-1.44,1.7-2.16,3.85-2.16,6.44Z"/>
      <g>
        <path class="cls-1" d="m959.56,278.91h10.88v-67.03h-10.88v-1.37h18.42c.91,0,1.83-.01,2.74-.05.91-.03,1.83-.08,2.74-.15.91,0,1.81-.02,2.69-.05.88-.03,1.78-.05,2.7-.05,3.72,0,7.17.44,10.34,1.32,3.17.88,5.91,2.14,8.23,3.77,2.32,1.63,4.13,3.59,5.44,5.88,1.31,2.29,1.96,4.83,1.96,7.64s-.75,5.55-2.25,7.84c-1.5,2.29-3.5,4.21-5.98,5.78-2.48,1.57-5.38,2.78-8.67,3.63-3.3.85-6.75,1.27-10.34,1.27-.92,0-2.09-.08-3.53-.25-1.44-.16-2.71-.34-3.82-.54v32.34h10.88v1.37h-31.56v-1.37Zm20.68-33.71c1.31.26,2.68.46,4.12.59,1.44.13,2.71.2,3.82.2,4.83,0,8.61-1.42,11.32-4.26,2.71-2.84,4.07-7.14,4.07-12.89,0-3.33-.33-6.11-.98-8.33-.65-2.22-1.68-4-3.09-5.34-1.41-1.34-3.23-2.27-5.49-2.79-2.25-.52-4.95-.78-8.09-.78-1.24,0-2.37.03-3.38.1-1.01.07-1.78.13-2.3.2v33.32Z"/>
        <path class="cls-1" d="m1022.77,278.91h7.55v-39.3h-7.55v-1.37h15.78v9.9h.2c.26-.98.69-2.09,1.27-3.33s1.4-2.43,2.45-3.58c1.04-1.14,2.3-2.11,3.77-2.89,1.47-.78,3.25-1.18,5.34-1.18,1.5,0,2.81.25,3.92.74,1.11.49,2.02,1.11,2.74,1.86.72.75,1.24,1.62,1.57,2.6.33.98.49,1.96.49,2.94,0,2.16-.49,3.59-1.47,4.31-.98.72-2.12,1.08-3.43,1.08-2.88,0-4.31-.91-4.31-2.74,0-.59.06-1.06.2-1.42.13-.36.28-.72.44-1.08.16-.36.31-.77.44-1.23.13-.46.2-1.11.2-1.96,0-2.09-1.14-3.14-3.43-3.14-1.05,0-2.16.39-3.33,1.18-1.18.78-2.27,1.93-3.28,3.43-1.01,1.5-1.86,3.32-2.55,5.44-.69,2.12-1.03,4.56-1.03,7.3v22.44h8.53v1.37h-24.5v-1.37Z"/>
        <path class="cls-1" d="m1106.86,279.2c-.85.65-1.86,1.23-3.04,1.71-1.18.49-2.61.74-4.31.74-3.14,0-5.41-.67-6.81-2.01-1.41-1.34-2.37-3.22-2.89-5.64h-.2c-.26.59-.62,1.32-1.08,2.21-.46.88-1.16,1.73-2.11,2.55-.95.82-2.21,1.5-3.77,2.06s-3.56.83-5.98.83c-2.74,0-4.93-.31-6.57-.93-1.63-.62-2.91-1.39-3.82-2.3-.92-.91-1.52-1.94-1.81-3.09-.29-1.14-.44-2.21-.44-3.18,0-2.29.46-4.12,1.37-5.49.91-1.37,2.11-2.46,3.58-3.28,1.47-.82,3.1-1.49,4.9-2.01,1.8-.52,3.61-1.08,5.44-1.67,2.16-.72,3.94-1.34,5.34-1.86,1.4-.52,2.5-1.16,3.28-1.91s1.32-1.7,1.62-2.84c.29-1.14.44-2.69.44-4.65,0-1.57-.1-2.97-.29-4.21-.2-1.24-.56-2.3-1.08-3.18-.52-.88-1.27-1.55-2.25-2.01-.98-.46-2.29-.69-3.92-.69-2.16,0-3.94.38-5.34,1.13-1.41.75-2.11,1.98-2.11,3.68,0,1.11.1,2.21.29,3.28.2,1.08.29,1.88.29,2.4,0,.92-.33,1.68-.98,2.3-.65.62-1.6.93-2.84.93-2.16,0-3.5-.39-4.02-1.18-.52-.78-.78-1.8-.78-3.04,0-1.44.33-2.81.98-4.12.65-1.31,1.62-2.47,2.89-3.48,1.27-1.01,2.87-1.81,4.8-2.4,1.93-.59,4.13-.88,6.62-.88,3,0,5.52.38,7.55,1.13,2.02.75,3.66,1.76,4.9,3.04,1.24,1.27,2.12,2.71,2.65,4.31.52,1.6.78,3.28.78,5.05v24.4c0,1.9.29,3.17.88,3.82.59.65,1.44.98,2.55.98.72,0,1.47-.13,2.25-.39.78-.26,1.53-.65,2.25-1.18l.78,1.08Zm-17.15-22.93h-.2c-.13.85-1.21,1.7-3.23,2.55l-7.35,2.94c-2.09.85-3.69,2.04-4.8,3.58-1.11,1.54-1.67,3.45-1.67,5.73,0,.98.1,1.99.29,3.04.2,1.05.55,1.98,1.08,2.79.52.82,1.26,1.49,2.21,2.01.95.52,2.17.78,3.68.78,2.16,0,3.9-.46,5.24-1.37,1.34-.91,2.35-2.06,3.04-3.43.69-1.37,1.14-2.86,1.37-4.46.23-1.6.34-3.05.34-4.36v-9.8Z"/>
        <path class="cls-1" d="m1139,209.62h15.97v69.29h7.55v1.37h-15.78v-8.53h-.2c-.26.78-.65,1.73-1.18,2.84-.52,1.11-1.29,2.19-2.3,3.23-1.01,1.05-2.29,1.95-3.82,2.7-1.54.75-3.42,1.13-5.63,1.13-2.88,0-5.6-.62-8.18-1.86-2.58-1.24-4.85-2.91-6.81-5-1.96-2.09-3.51-4.49-4.66-7.2-1.14-2.71-1.71-5.57-1.71-8.57s.55-5.75,1.67-8.43c1.11-2.68,2.61-5.01,4.51-7.01,1.89-1.99,4.08-3.59,6.57-4.8,2.48-1.21,5.13-1.81,7.94-1.81,3.59,0,6.5.88,8.72,2.65,2.22,1.76,3.79,3.92,4.7,6.47h.2v-35.08h-7.55v-1.37Zm-16.95,48.22c0,3.4.1,6.49.29,9.26.2,2.78.69,5.14,1.47,7.1.78,1.96,1.96,3.46,3.53,4.51,1.57,1.05,3.69,1.57,6.37,1.57s4.95-.59,6.62-1.76c1.67-1.18,2.96-2.7,3.87-4.56.91-1.86,1.53-3.93,1.86-6.22.33-2.29.49-4.51.49-6.66,0-2.55-.05-4.75-.15-6.62-.1-1.86-.28-3.51-.54-4.95-.26-1.44-.62-2.68-1.08-3.72-.46-1.04-1.01-2.02-1.67-2.94-.98-1.31-2.25-2.38-3.82-3.23-1.57-.85-3.56-1.27-5.98-1.27-2.29,0-4.17.46-5.64,1.37-1.47.92-2.61,2.22-3.43,3.92-.82,1.7-1.39,3.74-1.71,6.12-.33,2.39-.49,5.08-.49,8.08Z"/>
        <path class="cls-1" d="m1169.67,259.31c0-3.2.7-6.17,2.11-8.92,1.4-2.74,3.2-5.11,5.39-7.11,2.19-1.99,4.64-3.54,7.35-4.66,2.71-1.11,5.37-1.67,7.99-1.67s5.28.56,7.99,1.67c2.71,1.11,5.16,2.66,7.35,4.66,2.19,1.99,3.98,4.36,5.39,7.11,1.4,2.74,2.11,5.72,2.11,8.92s-.65,5.96-1.96,8.67c-1.31,2.71-3.02,5.08-5.14,7.1-2.12,2.03-4.56,3.63-7.3,4.8-2.74,1.18-5.55,1.76-8.43,1.76s-5.68-.59-8.43-1.76c-2.74-1.18-5.18-2.78-7.3-4.8-2.12-2.02-3.84-4.39-5.15-7.1-1.31-2.71-1.96-5.6-1.96-8.67Zm9.8,0c0,4.64.36,8.33,1.08,11.07.72,2.74,1.67,4.85,2.84,6.32,1.18,1.47,2.55,2.43,4.12,2.89,1.57.46,3.23.69,5,.69s3.43-.23,5-.69,2.94-1.42,4.12-2.89,2.12-3.58,2.84-6.32c.72-2.74,1.08-6.43,1.08-11.07,0-3.92-.26-7.2-.78-9.85-.52-2.65-1.32-4.8-2.4-6.47-1.08-1.67-2.43-2.86-4.07-3.58-1.63-.72-3.56-1.08-5.78-1.08s-4.15.36-5.78,1.08c-1.63.72-2.99,1.91-4.07,3.58s-1.88,3.82-2.4,6.47c-.52,2.65-.78,5.93-.78,9.85Z"/>
        <path class="cls-1" d="m1225.24,266.56h1.08c.46,1.57,1.04,3.15,1.76,4.75.72,1.6,1.68,3.07,2.89,4.41,1.21,1.34,2.7,2.43,4.46,3.28,1.76.85,3.89,1.27,6.37,1.27,2.09,0,3.95-.64,5.59-1.91,1.63-1.27,2.45-3.35,2.45-6.22,0-2.48-.64-4.23-1.91-5.24-1.27-1.01-2.76-1.81-4.46-2.4l-7.64-2.65c-.98-.33-2.04-.74-3.19-1.23-1.14-.49-2.21-1.18-3.19-2.06s-1.78-2.01-2.4-3.38c-.62-1.37-.93-3.14-.93-5.29,0-1.83.36-3.53,1.08-5.1.72-1.57,1.7-2.94,2.94-4.12s2.73-2.09,4.46-2.74c1.73-.65,3.61-.98,5.64-.98,1.44,0,2.6.12,3.48.34.88.23,1.65.46,2.3.69.65.23,1.24.46,1.76.69.52.23,1.14.34,1.86.34s1.24-.26,1.57-.78h1.08v11.17h-1.08c-.46-1.44-.98-2.83-1.57-4.17-.59-1.34-1.29-2.53-2.11-3.58-.82-1.04-1.83-1.86-3.04-2.45-1.21-.59-2.63-.88-4.26-.88-3.14,0-5.57.7-7.3,2.11-1.73,1.41-2.6,3.28-2.6,5.63,0,2.09.73,3.67,2.21,4.75,1.47,1.08,3.64,2.08,6.52,2.99l7.15,2.35c3.07,1.05,5.59,2.48,7.55,4.31,1.96,1.83,2.94,4.25,2.94,7.25,0,1.76-.34,3.5-1.03,5.19-.69,1.7-1.7,3.18-3.04,4.46-1.34,1.27-2.97,2.3-4.9,3.09-1.93.78-4.13,1.18-6.62,1.18-1.44,0-2.76-.15-3.97-.44s-2.32-.6-3.33-.93c-1.01-.33-1.95-.64-2.79-.93-.85-.29-1.63-.44-2.35-.44s-1.24.15-1.57.44c-.33.29-.59.6-.78.93h-1.08v-13.72Z"/>
      </g>
    </g>
    <g>
      <path class="cls-1" d="m580.09,208.57c-3.45-8.85-8.3-17.03-12.64-25.46-9.36-18.17-15.81-37.35-20.71-57.15-1.46-5.88-1.18-10.98,1.22-16.5,2.27-5.21,3.74-10.77,3.34-16.67-.52-7.6-4.38-12.8-10.9-14.07-1.41-.28-3.91-.22-3.96,1.22-.26,7.33-1.95-1.72-1.32-2.97,2.26-4.5,2.98-4.94,7.9-4.35,1.15.14,2.34.14,3.44.47,1.4.43,1.78.06,1.79-1.35.04-5.36.25-10.72.23-16.08-.01-3.76.48-7.32,2.45-10.63.95-1.6,1.64-3.39,2.28-5.15,2.49-6.91,2.99-13.84-.16-20.71-1.51-3.29-3.78-5.82-7.37-6.9-2.55-.77-3.69-.12-4.06,2.52-1.19,8.46-3.97,16.43-7.4,24.19-1.63,3.68-2.7,7.45-3.04,11.47-.31,3.69-1.2,7.27-2.7,10.69-1.95,4.44-3.86,8.89-5.79,13.33-.99,2.29-1.6,4.67-1.37,7.18.29,3.1.55,6.21,1.07,9.27,2.98,17.28,3.92,34.5-.56,51.71-1.07,4.12-1.05,8.34.62,12.38,1.75,4.22,3.82,8.28,6.55,11.97,8.15,11.01,15.6,22.46,22.22,34.47,6.54,11.86,10.65,24.22,9.57,37.94-.45,5.7-.87,11.41-1.54,17.09-1,8.41-2.2,16.79-3.36,25.18-.19,1.4-.1,2.14,1.65,2.13,7.97-.07,15.94-.05,23.91.01,1.28,0,1.57-.45,1.6-1.63.24-9.63.54-19.26.84-29.54,0-7.69-.03-16.03,0-24.36.03-6.83-1.33-13.4-3.79-19.71Z"/>
      <path class="cls-1" d="m825.77,95.09c-2.15-2.06-4.23-4.25-5.57-6.91-4.3-8.51-9.11-16.87-8.51-26.96.13-2.12-.78-2.8-2.94-2.78-1.18.01-2.31.27-3.36.77-5.85,2.72-9.02,7.37-9.37,13.77-.52,9.24,2.91,17.48,7.11,25.38,1.28,2.4,1.8,4.6,1.41,7.19-.85,5.58-1.79,11.15-2.4,16.76-2.1,19.46-7.29,38.02-15.81,55.66-3.4,7.04-7.21,13.86-10.82,20.79-5.1,9.78-8.42,19.91-7.7,31.19.43,6.78.08,13.62.08,20.43.2,0,.39,0,.59,0,0,10.36.03,20.72-.03,31.08,0,1.59.46,2.17,2.07,2.17,7.24,0,14.49.06,21.73.15,1.25.02,1.72-.5,1.62-1.68-.05-.65-.05-1.31-.14-1.95-1.33-9.68-2.84-19.34-3.94-29.04-.9-7.92-1.42-15.92.02-23.83,2.1-11.5,7.44-21.7,13.26-31.66,4.68-8.01,10.22-15.46,15.32-23.19,5.35-8.13,9.8-16.63,9.81-26.7,0-13.77-.1-27.53,1.22-41.26.36-3.72-.95-6.81-3.63-9.37Z"/>
      <path class="cls-1" d="m770.2,34.74c-3.56-3.37-7.77-4.97-12.79-4.96-10.09.02-20.09,1.3-30.13,1.97-5.13.34-10.15,1.54-14.73,4.14-3.78,2.14-7.67,4.07-11.66,5.78-3.92,1.67-7.87,3.3-11.75,5.07-2.74,1.24-3.2,2.49-2.37,5.41.28.99.74,1.88,1.3,2.73,3.22,4.9,8.04,5.64,13.24,4.79,6.88-1.12,13.54-3.2,19.71-6.44,3.81-2,7.62-2.3,11.75-1.79,8.21,1,16.46,1.29,24.71.35,1.38-.16,1.93.4,2.51,1.45,5.97,10.77,14.62,19.34,23.26,28.64.19-.9.3-1.23.32-1.57.54-8.48,3.87-15.81,9.34-22.2.86-1.01.28-1.32-.28-1.87-7.47-7.17-14.92-14.38-22.43-21.5Z"/>
      <path class="cls-1" d="m556.74,79.75c.92.46,1.43,1.77,2.08,2.73,1.25,1.86,2.45,3.75,3.68,5.63.53.81.91,1.32,1.51-.07,3.95-9.15,9.01-17.66,15.45-25.27,3.52-4.17,6.21-8.65,7.47-14.01.79-3.38,2.48-6.36,5.2-8.58,1.84-1.51,3.84-2.84,5.8-4.2,7.44-5.16,11.52-12.6,14.31-20.94.33-.98.34-1.99.36-3,.15-2.31-.5-4.45-1.54-6.47-1.99-3.86-4.2-4.36-7.28-1.39-7.94,7.62-16.07,15.07-23.01,23.65-6.88,8.5-13.6,17.13-21.3,24.92-1.59,1.61-2.51,3.64-2.53,5.85-.06,5.67-.73,11.26-1.79,16.81-.34,1.77-.47,3.32,1.61,4.36Z"/>
      <path class="cls-1" d="m705.77,17.72c6.01,2.09,12.24,2.89,18.6,2.58,1.88-.09,3.4.24,4.51,1.9.72,1.07,1.86,1.52,3.16,1.67,1.67.19,3.32.17,4.99.09,7.67-.38,15.33-.78,23.01-.95,6.63-.15,11.94,1.87,16.55,6.87,6.82,7.4,14.15,14.32,21.89,20.78.88.74,1.73,1.53,2.83,1.98.53.21.99.26,1.37-.2.36-.43,0-.82-.19-1.18-.2-.39-.43-.76-.69-1.11-6.98-9.44-13.3-19.29-18.93-29.6-2.2-4.03-5.69-6.66-10.31-7.67-4.31-.94-8.58-2.03-12.88-3.03-8.72-2.03-17.6-3.43-26.08-6.48-1.96-.71-4.11-.91-6.21-.86-10.09.23-20.13-.34-30.02-2.39-3.11-.65-3.93,1.12-4.08,3.47.06.94.16,1.86.47,2.77,2,5.91,6.35,9.38,12.01,11.35Z"/>
      <path class="cls-1" d="m674.95,50.19c1.5.39,2.63-.02,3.57-1.31,4.33-5.91,9.94-10.32,16.49-13.47,5.85-2.81,11.7-5.66,18.1-7.45-3.55-1.15-7.16-2.14-10.63-3.51-3.03-1.19-5.73-.95-8.49.64-4.65,2.69-9.65,4.6-14.75,6.27-3.5,1.15-7.06,2.12-10.56,3.27-2.93.97-4.49,3.15-3.81,5.48,1.49,5.17,4.75,8.67,10.08,10.07Z"/>
      <path class="cls-1" d="m593.19,52.13c-.24.35-.69.68-.41,1.13.31.5.77.16,1.15,0,8.73-3.39,17.77-5.46,27.08-6.46,1.63-.17,3.36-.39,4.38-1.99,2.1-3.28,3.45-6.82,3.65-10.97-.06-.5-.13-1.22-.25-1.93-.57-3.18-1.94-4.2-5.12-3.74-1.94.28-3.83.88-5.52,1.86-9.79,5.69-18.44,12.69-24.96,22.09Z"/>
      <path class="cls-1" d="m773.57,87.34c-5.99-15.54-20.19-25.44-36.83-25.75-8.83-.16-17.19,1.82-25.51,4.49-7.16,2.29-14.4,4.51-21.94,5.07-11.59.86-22.51-2.03-33.15-6.43-7.68-3.17-15.26-6.63-23.39-8.58-7.78-1.87-15.68-2.49-23.47-.75-16.56,3.71-27.31,14.37-33.26,29.84-3.89,10.12-5.93,20.73-5.5,31.16-.54,12.76,2.85,24.11,7.97,35.06,3.26,6.96,7.32,13.48,10.86,20.28,3.51,6.76,6.48,13.74,7.68,21.34,1.39,8.81,1.37,17.76,2.47,26.6,1.41,11.35,2.91,22.66,7.38,33.36,5.46,13.08,12.32,25.22,22.51,35.26,2.6,2.56,5.5,4.7,8.97,5.98,4.12,1.52,7.28-.12,8.15-4.38.67-3.27.91-6.6.85-9.94-.19-10.53.82-20.96,2.57-31.34,1.58-9.35,3.12-18.68,7.02-27.45,2.38-5.35,5.19-10.37,9.53-14.37,5.62-5.18,13.29-5.01,18.77.28,2.69,2.6,4.63,5.71,6.4,8.98,4.52,8.37,6.24,17.56,7.83,26.75,2,11.58,2.81,23.28,2.46,35.05-.11,3.83-.23,7.7.84,11.44,1.47,5.15,5.28,6.83,10.03,4.58,2.65-1.25,5-2.92,7.09-4.96,14.6-14.2,23.61-31.45,27.95-51.26,2.04-9.32,2.51-18.78,2.99-28.26.43-8.47,1.36-16.85,3.95-25.02,2.34-7.39,5.97-14.11,9.84-20.73,5.31-9.09,10.44-18.36,12.61-28.7,3.39-16.12,2.34-32.08-3.64-47.6Zm-179.33,66.09v1.69s-12.91-22.03-11.2-41.88c1.71-19.86,6.69-32.51,11.2-36.18l4.51-3.67.48-.43s5.52-8.57,33.52-2.57c0,0-50,5-38.51,83.05Z"/>
    </g>
  </g>
</svg>